<?xml version="1.0" standalone="no"?>
<!DOCTYPE svg PUBLIC "-//W3C//DTD SVG 1.1//EN" "http://www.w3.org/Graphics/SVG/1.1/DTD/svg11.dtd" >
<svg xmlns="http://www.w3.org/2000/svg">
<metadata>Generated by IcoMoon</metadata>
<defs>
<font id="glyphs" horiz-adv-x="512">
<font-face units-per-em="512" ascent="480" descent="-32" />
<missing-glyph horiz-adv-x="512" />
<glyph unicode="&#x20;" d="" horiz-adv-x="256" />
<glyph unicode="&#xe600;" d="M438.857 221.714q0-71.714-41.857-129t-108.143-79.286q-7.714-1.428-11.286 2t-3.572 8.572v60.286q0 27.714-14.857 40.572 16.286 1.714 29.286 5.143t26.857 11.143 23.143 19 15.143 30 5.857 43q0 34.572-22.572 58.857 10.572 26-2.286 58.285-8 2.572-23.143-3.143t-26.286-12.572l-10.857-6.857q-26.572 7.429-54.857 7.429t-54.857-7.428q-4.572 3.143-12.143 7.714t-23.857 11-24.572 3.857q-12.572-32.285-2-58.285-22.572-24.286-22.572-58.857 0-24.285 5.857-42.857t15-30 23-19.143 26.857-11.143 29.285-5.143q-11.428-10.286-14-29.428-6-2.857-12.857-4.286t-16.285-1.428-18.715 6.143-15.857 17.857q-5.428 9.143-13.857 14.857t-14.143 6.857l-5.715 0.857q-6 0-8.285-1.286t-1.428-3.286 2.572-4 3.715-3.428l2-1.428q6.285-2.857 12.428-10.857t9-14.572l2.857-6.572q3.715-10.857 12.572-17.572t19.143-8.572 19.857-2 15.857 1l6.572 1.143q0-10.857 0.143-25.428t0.143-15.428q0-5.143-3.714-8.572t-11.428-2q-66.285 22-108.143 79.286t-41.857 129q0 59.714 29.428 110.143t79.857 79.857 110.143 29.428 110.143-29.428 79.857-79.857 29.428-110.143z" horiz-adv-x="439" />
<glyph unicode="&#xe601;" d="M242.286 226.857q0 12.286-11.714 18.857t-22 0.286q-12.286-5.714-12.143-20.714t12.429-20.143q11.143-6.572 23.143 1.143t10.286 20.572zM265.143 231.429q2.286-18.857-10.286-34.572t-31.428-17.428-34 11.428-16 32.286q-0.571 14 7.286 26.572t20.714 18.286q20 8.857 40.428-2.857t23.286-33.714zM314.286 343.143q-5.714-6-15.286-9.714t-15.143-4.572-18.143-2.286q-44.286-5.714-92.572 0-12.572 1.714-18 2.714t-15 4.572-15.572 9.286q3.715 5.428 10.285 8.857t11.428 4.429 13.428 2.428q56.572 10 116.572 0.285 9.428-1.428 14.572-2.428t12.286-4.572 11.143-9zM326.286 130q0 2 1.572 7.572t0.857 9.143-5 4.714q-46-30.286-104.286-30.286t-104.572 30.286l-3.428-1.714-1.428-3.428q7.428-44 11.715-60 13.428-23.143 58.286-30.857 71.143-13.143 122.286 15.143 9.714 5.428 14 14.714t6.428 24.428 3.572 20.286zM363.428 328q2.572 15.143-2.286 21.429-12.286 15.714-44.286 25.143-61.714 18-139.143 10.286-37.715-3.428-64.572-13.143-10.857-4.285-17-7.143t-13.428-9.714-8.428-15.429q2.285-19.428 5.428-39.428t8.285-48.857 6.857-39.143q0.285-1.428 1.428-8.857t2-10.286 3.428-7.714 6.285-8q30-22.857 81.143-28.572 74-8 125.715 18 6.857 3.714 11.286 6.572t8.857 8.286 5.572 11.428q13.714 76.286 22.857 135.143zM438.857 356.572v-274.286q0-34-24.143-58.143t-58.143-24.143h-274.286q-34 0-58.143 24.143t-24.143 58.143v274.286q0 34 24.143 58.143t58.143 24.143h274.286q34 0 58.143-24.143t24.143-58.143z" horiz-adv-x="439" />
<glyph unicode="&#xe602;" d="M256 480c-141.376 0-256-114.624-256-256s114.592-256 256-256c141.376 0 256 114.624 256 256s-114.624 256-256 256zM412.864 347.264c24.992-31.68 40.64-70.976 42.56-113.888-28.864 6.112-56.192 9.12-81.632 9.12v0h-0.224c-20.512 0-39.712-1.888-57.856-5.056-4.384 10.816-8.832 21.184-13.344 31.136 40.384 17.664 79.136 42.848 110.496 78.688zM256 423.712c47.136 0 90.304-16.48 124.576-43.904-26.176-31.296-60.768-53.984-98.112-70.048-26.208 50.752-51.584 86.976-68.896 109.184 13.76 3.072 27.872 4.768 42.432 4.768zM167.808 402.912c13.856-16.352 41.632-52.384 71.264-108.672-60.288-17.952-121.024-22.112-157.728-22.112-1.024 0-2.080 0-3.104 0h-0.064c-6.176 0-11.488 0.128-15.968 0.256 14.368 57.376 53.664 104.8 105.6 130.528zM56.288 224c0 0.928 0.032 1.888 0.096 2.88 5.696-0.224 12.992-0.416 21.792-0.416h0.064c40.16 0.288 110.272 3.648 181.248 26.048 3.872-8.448 7.776-17.248 11.52-26.464-47.456-15.808-84.768-41.12-112.416-66.304-26.592-24.256-44.608-48.256-55.104-64.256-29.376 34.816-47.2 79.52-47.2 128.512zM256 24.256c-44.448 0-85.408 14.688-118.656 39.36 7.104 11.616 22.208 33.984 46.336 57.056 24.8 23.744 59.040 48.256 103.744 62.816 15.232-42.624 28.992-91.328 39.456-146.144-22.080-8.416-45.888-13.088-70.88-13.088zM369.056 59.712c-10.112 49.6-22.944 94.272-36.864 134.208 12.928 1.856 26.56 2.88 40.928 2.88h0.64c23.808 0 49.984-2.944 78.336-9.376-9.792-52.8-40.416-98.304-83.040-127.712z" />
<glyph unicode="&#xe603;" d="M83.488 479.264v0.736c-0.128-0.352-0.288-0.576-0.416-0.736h0.416zM508.64 352.832c0 41.184-33.12 74.624-73.984 74.624-58.272 2.496-117.856 3.584-178.656 3.488-60.8 0.064-120.384-0.992-178.656-3.488-40.8 0-73.952-33.44-73.952-74.624-2.432-32.672-3.488-65.248-3.392-97.888-0.096-32.608 0.96-65.248 3.392-97.92 0-41.184 33.12-74.624 73.952-74.624 58.208-2.432 117.856-3.552 178.656-3.424 60.736-0.128 120.352 0.992 178.624 3.424 40.8 0 73.952 33.44 73.952 74.624 2.496 32.672 3.52 65.312 3.424 97.92 0.096 32.64-0.928 65.248-3.36 97.888zM192.032 142.976v224l160-112-160-112z" />
<glyph unicode="&#xe604;" d="M437.184 479.904c-71.168 2.336-119.296-37.92-144.544-120.928 12.96 5.408 25.632 8.16 37.92 8.16 25.984 0 37.44-14.72 34.336-44.224-1.504-17.856-12.96-43.84-34.336-77.984-21.504-34.144-37.568-51.2-48.192-51.2-13.824 0-26.432 26.336-37.952 79.104-3.84 15.52-10.752 55.072-20.64 118.72-9.248 58.944-33.728 86.432-73.472 82.56-16.8-1.536-42.016-17.056-75.616-46.496-24.576-22.528-49.408-45.024-74.688-67.52l24.064-31.392c23.008 16.384 36.448 24.448 40.16 24.448 17.664 0 34.080-27.872 49.376-83.68 13.792-51.264 27.584-102.4 41.376-153.632 20.608-55.776 45.92-83.712 75.68-83.712 48.16 0 107.168 45.728 176.704 137.216 67.296 87.616 102.016 156.672 104.384 207.136 3.104 67.392-21.76 101.92-74.56 103.424z" />
<glyph unicode="&#xe605;" d="M83.488 479.264v0.736c-0.128-0.352-0.288-0.576-0.416-0.736h0.416zM512 413.696c-18.848-8.384-39.136-14.016-60.384-16.608 21.728 12.992 38.368 33.664 46.24 58.112-20.352-12.032-42.816-20.736-66.688-25.504-19.232 20.448-46.496 33.184-76.704 33.184-57.984 0-105.024-47.072-105.024-105.056 0-8.192 0.928-16.256 2.72-23.936-87.296 4.448-164.704 46.208-216.512 109.76-9.056-15.424-14.24-33.504-14.24-52.704 0-36.48 18.56-68.608 46.72-87.456-17.216 0.544-33.408 5.28-47.584 13.152 0-0.448 0-0.832 0-1.344 0-50.912 36.224-93.344 84.256-103.008-8.8-2.4-18.080-3.68-27.648-3.68-6.752 0-13.344 0.64-19.776 1.888 13.344-41.76 52.16-72.128 98.112-72.928-35.936-28.192-81.248-44.992-130.432-44.992-8.48 0-16.832 0.512-25.056 1.504 46.496-29.824 101.696-47.232 161.024-47.232 193.216 0 298.88 160.064 298.88 298.912 0 4.576-0.096 9.088-0.288 13.632 20.512 14.752 38.336 33.248 52.384 54.304z" />
<glyph unicode="&#xe606;" d="M256 480c-141.408 0-256-114.624-256-256s114.592-256 256-256 256 114.624 256 256-114.592 256-256 256zM253.216 286.016c-8.576 0-15.488-7.008-15.488-15.52l-0.064-93.408c-0.512-35.744-29.568-64.576-65.408-64.576-36.16 0-65.472 29.312-65.472 65.504 0 0.48 0 40.64 0 40.64h50.048v-40.096c0-8.608 6.976-15.456 15.488-15.456 8.576 0 15.488 6.944 15.488 15.456v94.592c1.28 35.072 30.016 63.136 65.344 63.136 35.456 0 64.32-28.288 65.376-63.488v-20.672l-29.824-8.896-20.032 9.312v17.984c0.032 8.512-6.88 15.488-15.456 15.488zM399.712 178.016c0-36.192-29.312-65.504-65.504-65.504-36 0-65.184 28.992-65.504 64.864v40.832l20-9.312 29.888 8.864v-41.12c0-8.608 6.944-15.488 15.488-15.488s15.456 6.944 15.456 15.488v41.984h50.080c0.096 0 0.096-40.16 0.096-40.608z" />
<glyph unicode="&#xe607;" d="M90.368 28.96c39.424 56.8 104.864 94.112 179.264 94.112 67.712 0 128.064-30.976 168.128-79.328 45.856 46.272 74.24 109.952 74.24 180.256 0 141.376-114.624 256-256 256s-256-114.624-256-256c0-78.144 35.136-148.064 90.368-195.040zM392.8 147.232c-3.68-8.32-10.368-9.984-18.176-6.368-34.048 15.744-72 24.608-112 24.608-41.12 0-80-9.28-114.752-25.856-3.744-1.824-11.936-2.56-15.616 8.064-3.68 10.56 2.112 16.64 5.504 18.112 37.984 17.76 80.192 27.84 124.864 27.84 43.872 0 86.048-8.352 122.816-26.912 5.824-2.944 11.136-11.264 7.36-19.488zM414.624 212.608c-2.688-3.68-6.816-6.24-11.68-6.24-1.376 0-2.56 0.416-3.808 0.736-41.824 18.432-87.936 28.832-136.512 28.832-48.256 0-94.048-10.208-135.616-28.416-1.504-0.544-3.072-0.992-4.768-0.992-4.928 0-9.152 2.688-11.776 6.496l-2.752 8.32c0.064 4.32 2.048 8.064 5.024 10.688 45.792 20.576 96.448 32.128 149.888 32.128 53.408 0 104.032-11.552 149.824-32.128 3.072-2.56 4.96-6.432 5.088-10.752l-2.912-8.672zM94.112 315.968c52.128 20.992 108.864 32.736 168.512 32.736 59.008 0 115.328-11.488 167.008-32.128 7.008-3.552 11.872-10.624 11.872-19.040 0-11.872-9.632-21.504-21.504-21.504-1.696 0-3.264 0.416-4.8 0.704-47.136 19.040-98.624 29.6-152.576 29.6-54.016 0-105.568-10.56-152.736-29.664-1.504-0.256-3.008-0.608-4.64-0.608-11.872 0-21.504 9.632-21.504 21.504 0 7.872 4.192 14.656 10.368 18.4zM269.632 38.496c-43.328 0-81.728-20.896-106.24-52.96 28.736-11.168 59.936-17.536 92.64-17.536 40.544 0 78.688 9.664 112.704 26.4-24.48 27.040-59.808 44.096-99.104 44.096z" />
<glyph unicode="&#xe608;" d="M83.456 464.288v0.736c-0.128-0.352-0.32-0.576-0.448-0.736h0.448zM490.592 186.944c1.888 12.064 2.944 24.416 2.944 37.056 0 131.2-106.368 237.568-237.568 237.568-12.576 0-24.992-1.056-37.056-2.944-21.888 13.568-47.68 21.376-75.392 21.376-79.264 0-143.52-64.256-143.52-143.552 0-27.68 7.84-53.472 21.376-75.36-1.888-12.096-2.912-24.448-2.912-37.088 0-131.2 106.304-237.472 237.536-237.472 12.608 0 24.992 0.96 37.088 2.88 21.952-13.504 47.68-21.376 75.36-21.376 79.264 0 143.52 64.288 143.52 143.52 0 27.712-7.808 53.472-21.376 75.392zM368.704 116c-10.016-14.496-24.768-25.824-44.064-33.952-19.328-8.128-42.176-12.192-68.608-12.192-31.584 0-57.792 5.504-78.464 16.672-14.656 8-26.56 18.752-35.68 32.128-9.184 13.408-13.856 26.496-13.856 39.328 0 7.488 2.88 14.048 8.48 19.392 5.696 5.408 12.992 8.128 21.568 8.128 7.040 0 13.056-2.112 18.016-6.304 4.896-4.224 9.024-10.336 12.384-18.4 4-9.312 8.384-17.088 13.024-23.36 4.672-6.112 11.104-11.328 19.52-15.328 8.32-4.064 19.424-6.048 33.248-6.048 19.008 0 34.368 4.16 46.048 12.224 11.808 8.224 17.504 18.112 17.504 30.144 0 9.6-3.072 17.184-9.312 23.136-6.368 6.016-14.496 10.56-24.672 13.76-10.144 3.264-23.84 6.688-40.96 10.272-22.944 4.96-42.176 10.848-57.728 17.536-15.584 6.752-28 15.936-37.216 27.584-9.248 11.68-13.856 26.272-13.856 43.584 0 16.448 4.832 31.2 14.56 44.032 9.76 12.864 23.84 22.688 42.112 29.568 18.24 6.848 39.744 10.208 64.352 10.208 19.68 0 36.704-2.208 51.136-6.816 14.368-4.576 26.368-10.56 35.936-18.080 9.6-7.552 16.576-15.456 20.992-23.872 4.448-8.384 6.688-16.608 6.688-24.544 0-7.392-2.912-14.144-8.512-20.064-5.632-5.952-12.736-8.896-21.152-8.864-7.52 0-13.472 1.728-17.6 5.408-4 3.52-8.192 9.248-12.736 17.184-5.728 11.008-12.608 19.584-20.608 25.792-7.776 5.984-20.64 9.184-38.528 9.152-16.576 0-29.824-3.328-39.776-9.984-10.048-6.752-14.848-14.496-14.88-23.648 0.032-5.728 1.664-10.56 4.992-14.688 3.36-4.224 8.032-7.776 14.048-10.848 6.016-3.040 12.128-5.504 18.272-7.168 6.208-1.76 16.544-4.32 30.88-7.68 17.952-3.904 34.304-8.192 48.96-12.96s27.136-10.464 37.44-17.28c10.4-6.816 18.528-15.456 24.384-25.92 5.824-10.496 8.704-23.328 8.704-38.368 0.128-18.112-4.928-34.432-15.040-48.864z" />
<glyph unicode="&#xe609;" d="M127.104 457.44c-65.888-26.048-110.624-76.352-123.136-144.064-7.68-41.6-4.736-86.976 13.6-125.792 4.096-8.64 8.992-16.928 14.848-24.64 2.88-3.712 5.888-7.328 9.152-10.72 5.856 2.048 11.456 4.672 16.832 7.744 22.304 12.576 38.688 31.904 57.76 48.192-63.68 73.824 3.84 165.312 88.384 185.76 78.624 19.008 185.248-13.792 209.056-94.688 9.888-33.536 3.36-70.56-23.904-94.88-14.272-12.672-32.448-21.056-51.584-24.512-11.264-1.984-22.752-2.336-34.016-1.184-6.272 0.64-12.608 1.664-18.752 3.136-10.464 2.496-19.776 2.144-19.776 13.44 0 29.504 0 59.008 0 88.512 0 14.752 0 29.504 0 44.256 0 8.992 0.896 7.328-6.592 8.256-6.016 0.704-11.872 1.28-17.824 1.76-20.864 1.664-42.688 2.752-63.36-0.768-7.776-1.376-8.288-0.16-8.288-8.544 0-6.816 0-13.632 0-20.384 0-16.576 0-33.056 0-49.632 0-49.44 3.744-99.424 1.728-148.736-0.608-14.688-0.992-49.984-17.44-57.248-19.104-8.448-35.936 9.376-53.568 13.12 2.4-24.768-13.056-73.888 15.776-86.368 26.464-11.424 56.896-15.648 84.832-6.24 58.432 19.84 77.376 84.864 69.984 138.368 90.272-27.008 187.68 18.112 226.304 99.616 27.456 58.048 15.84 130.112-25.536 179.488-77.504 92.448-234.816 110.208-344.48 66.752z" />
<glyph unicode="&#xe60a;" d="M83.488 464.32v0.736c-0.128-0.352-0.288-0.576-0.416-0.736h0.416zM256 480c-141.376 0-256-114.624-256-256 0-104.768 63.072-194.848 153.248-234.464-0.672 17.888-0.16 39.36 4.448 58.816 4.928 20.736 32.928 139.488 32.928 139.488s-8.16 16.32-8.16 40.48c0 37.984 21.984 66.272 49.344 66.272 23.328 0 34.56-17.504 34.56-38.432 0-23.36-14.944-58.368-22.624-90.816-6.4-27.2 13.632-49.312 40.384-49.312 48.512 0 81.184 62.304 81.184 136.064 0 56.096-37.824 98.112-106.528 98.112-77.664 0-126.016-57.952-126.016-122.624 0-22.272 6.56-38.016 16.896-50.208 4.704-5.568 5.408-7.808 3.68-14.208-1.248-4.736-4.032-16.064-5.216-20.576-1.728-6.496-6.976-8.8-12.8-6.368-35.776 14.56-52.448 53.76-52.448 97.76 0 72.704 61.312 159.936 183.008 159.936 97.696 0 162.048-70.752 162.048-146.624 0-100.448-55.872-175.392-138.112-175.392-27.68 0-53.696 14.944-62.56 31.872 0 0-14.88-59.040-17.984-70.368-5.44-19.744-16.064-39.392-25.76-54.816 22.944-6.848 47.296-10.528 72.48-10.528 141.376 0 256 114.624 256 255.968s-114.624 255.968-256 255.968z" />
<glyph unicode="&#xe60b;" d="M424.288 237.12c44.096 0 79.84 35.584 79.84 79.52s-35.744 79.552-79.84 79.552c-44.128 0-79.84-35.616-79.84-79.552s35.712-79.52 79.84-79.52zM431.36 218.624c-0.64 0.064-1.248 0.128-1.824 0.192-0.448 0.064-0.896 0.064-1.376 0.064-1.28 0.064-2.528 0.128-3.808 0.128h-0.128c-1.312 0-2.592-0.064-3.84-0.128-0.512 0-0.928 0-1.408-0.064-0.608-0.064-1.152-0.128-1.792-0.192-45.12-3.872-80.672-44.128-80.672-90.048v-30.88c0-4.384 3.552-7.936 8-7.936h159.616c4.416 0 7.968 3.552 7.968 7.936v30.88c-0.064 45.92-35.584 86.176-80.736 90.048zM239.328 222.368c39.616 0 71.872 32.064 71.872 71.616s-32.256 71.584-71.872 71.584c-39.744 0-71.872-32-71.872-71.552s32.096-71.648 71.872-71.648zM245.632 205.76c-0.512 0.064-1.056 0.128-1.568 0.192-0.448 0-0.864 0-1.312 0.064-1.12 0-2.24 0.064-3.36 0.064h-0.192c-1.12 0-2.24-0.064-3.392-0.064-0.448-0.064-0.832-0.064-1.28-0.064-0.544-0.064-1.056-0.128-1.6-0.192-40.672-3.488-72.672-39.68-72.672-81.056v-27.808c0-3.936 3.232-7.136 7.232-7.136h143.552c3.968 0 7.2 3.2 7.2 7.136v27.808c0 41.344-32 77.536-72.608 81.056zM71.136 209.12c35.712 0 64.672 28.768 64.672 64.448 0 35.552-28.96 64.448-64.672 64.448-35.744 0-64.672-28.864-64.672-64.448-0.032-35.616 28.896-64.448 64.672-64.448zM76.8 194.176c-0.48 0-0.928 0.064-1.44 0.064-0.352 0.064-0.704 0.064-1.12 0.064-0.992 0.128-2.016 0.128-3.040 0.128h-0.16c-1.024 0-2.016 0-3.136-0.128-0.416 0-0.704 0-1.12-0.064-0.48 0-0.896-0.064-1.44-0.064-36.608-3.168-65.344-35.808-65.344-72.992v-24.96c0-3.552 2.912-6.432 6.464-6.432h129.216c3.552 0 6.432 2.88 6.432 6.432v24.96c0.064 37.184-28.672 69.824-65.312 72.992z" />
<glyph unicode="&#xe60c;" d="M83.456 464.32v0.736c-0.128-0.352-0.288-0.576-0.416-0.736h0.416zM479.968 480h-447.968c-17.664 0-32-14.336-32-32v-448.064c0-17.664 14.336-31.936 32-31.936h447.968c17.696 0 32 14.272 32 31.936v448.096c0 17.632-14.304 31.968-32 31.968zM438.656 65.024h-72.128v115.008c0 28.928-8.256 48.64-34.304 48.64-19.968 0-31.872-13.312-37.056-26.080-1.92-4.608-2.368-11.104-2.368-17.504v-120h-74.464c0 0 0.928 200.896 0 221.088h74.432v-30.496c9.6 14.656 26.688 35.52 65.056 35.52 47.424 0 80.8-36.928 80.8-102.912v-123.264zM130.336 382.464c22.176 0 35.808-16.032 36.256-36.992 0-20.576-14.048-36.992-36.672-36.992h-0.384c-21.792 0-35.808 16.448-35.808 36.992 0 20.96 14.432 36.992 36.608 36.992zM170.688 285.312v-220.256h-73.152v220.256h73.152z" />
<glyph unicode="&#xe60d;" d="M427.52 480h-343.040c-46.464 0-84.48-38.016-84.48-84.48v-343.040c0-46.432 38.016-84.512 84.48-84.512h343.040c46.432 0 84.512 38.048 84.512 84.512v343.040c-0.032 46.464-38.048 84.48-84.512 84.48zM411.168 167.296c-0.32-54.432-44.544-98.976-99.040-98.976h-113.856c-54.496 0-99.072 44.544-99.072 98.976v115.552c0 54.496 44.576 99.2 99.072 99.2h69.312c25.568-3.072 62.752-24.928 76.512-54.080 3.744-8.16 5.76-9.44 8.864-33.664 1.696-12.448 2.56-21.696 8.096-26.816 7.84-7.168 36.96-2.304 42.784-6.816l4.384-3.424 2.624-5.472 0.928-4.416-0.608-80.064zM199.52 263.168h54.944c10.496 0 19.008 8.64 19.008 19.008s-8.512 18.88-19.008 18.88h-54.944c-10.432 0-18.944-8.512-18.944-18.88s8.512-19.008 18.944-19.008zM311.232 187.52h-111.648c-10.464 0-19.008-8.448-19.008-18.816 0-10.272 8.544-18.88 19.008-18.88h111.616c10.336 0 18.816 8.608 18.816 18.88 0 10.4-8.448 18.816-18.784 18.816z" />
<glyph unicode="&#xe60e;" d="M462.368 434.752h-128.352v32h128.352v-32zM248.704 303.488c8.32-12.896 12.384-28.544 12.384-46.944 0-18.944-4.64-36-14.112-51.040-6.080-9.952-13.568-18.24-22.56-25.088-10.144-7.776-22.144-13.152-35.936-16.096-13.824-2.88-28.832-4.32-44.96-4.32h-143.52v320h153.92c38.752-0.64 66.208-11.904 82.496-34.048 9.664-13.632 14.528-29.952 14.528-48.896 0-19.552-4.896-35.264-14.752-47.136-5.472-6.592-13.568-12.704-24.256-18.176 16.224-5.984 28.544-15.328 36.768-28.256zM73.472 353.888h67.36c13.92 0 25.056 2.688 33.728 7.872 8.672 5.312 12.896 14.688 12.896 28.192 0 14.944-5.696 24.768-17.088 29.568-9.824 3.296-22.368 4.992-37.664 4.992h-59.264l0.032-70.624zM193.984 261.184c0 16.64-6.752 28.128-20.288 34.24-7.552 3.552-18.176 5.312-31.776 5.504h-68.448v-85.312h67.328c13.856 0 24.544 1.792 32.288 5.632 13.92 7.008 20.896 20.224 20.896 39.936zM509.984 313.248c1.568-10.464 2.24-25.696 1.984-45.536h-166.112c0.896-23.040 8.8-39.168 23.84-48.352 9.024-5.824 20-8.672 32.896-8.672 13.504 0 24.576 3.456 33.056 10.528 4.672 3.744 8.672 9.056 12.256 15.68h60.864c-1.568-13.568-8.896-27.36-22.048-41.376-20.384-22.304-49.024-33.504-85.824-33.504-30.368 0-57.12 9.44-80.384 28.256-23.168 18.848-34.784 49.44-34.784 91.84 0 39.68 10.4 70.112 31.36 91.328 20.992 21.248 48.192 31.808 81.664 31.808 19.808 0 37.728-3.552 53.664-10.752 15.904-7.136 29.024-18.432 39.392-33.952 9.312-13.536 15.36-29.28 18.176-47.296zM450.016 307.328c-1.12 15.936-6.432 28-16 36.192-9.44 8.352-21.248 12.448-35.328 12.448-15.36 0-27.2-4.448-35.616-13.12-8.48-8.672-13.76-20.576-15.872-35.488l102.816-0.032z" />
<glyph unicode="&#xe60f;" d="M0 69.152c18.848 8.736 38.4 14.88 58.624 18.4 27.232 4.064 49.856 6.304 67.84 6.816-5.536 7.392-10.528 15.296-14.848 23.68-5.088 8.16-7.616 17.984-7.616 29.44 0 6.88 0.96 12.608 2.88 17.184 1.696 4.8 3.264 9.28 4.704 13.376-8.768-1.056-17.024-1.536-24.8-1.536-36.768 0.448-65.664 10.944-86.784 31.52v-138.88zM187.488 276.512c0 30.688-7.776 61.664-23.328 92.896-7.296 14.976-16.896 27.168-28.8 36.544-12.16 8.896-26.112 13.6-41.92 14.080-20.928-0.512-38.304-9.024-52.16-25.504-11.68-17.248-17.28-36.544-16.768-57.856 0-28.16 8.16-57.504 24.48-87.968 7.904-14.208 18.112-26.272 30.624-36.16 12.48-9.888 26.784-14.848 42.848-14.848 20.32 0.736 37.248 8.128 50.752 22.080 6.528 9.92 10.72 20.064 12.608 30.464 1.088 10.432 1.664 19.168 1.664 26.272zM147.488 72.384c-4.928 0.544-10.688 0.768-17.312 0.768-3.936 0.512-14.016 0-30.208-1.536-15.968-2.24-32.32-5.952-48.992-11.008-3.936-1.536-9.44-3.808-16.576-6.88-7.136-3.264-14.368-7.936-21.728-14.016-4.704-4.16-8.928-9.024-12.672-14.56v-21.152c0-19.872 16-36 35.648-36h194.304c0 0.48 0.032 0.928 0.032 1.44 0 19.744-6.4 36.96-19.168 51.648-13.472 13.952-34.592 31.040-63.328 51.296zM476.352 480h-440.704c-19.648 0-35.648-16.128-35.648-36v-48.288c2.24 2.4 4.576 4.8 7.008 7.168 21.952 18.24 44.704 30.144 68.352 35.712 23.392 4.8 45.344 7.232 65.792 7.232h154.24l-47.616-28.064h-47.584c4.864-3.040 10.304-7.488 16.352-13.312 5.824-6.080 11.52-13.536 17.088-22.4 5.344-8.384 10.048-18.24 14.176-29.632 3.392-11.392 5.056-24.704 5.056-39.872-0.448-27.872-6.56-50.144-18.272-66.88-5.76-8.096-11.84-15.552-18.272-22.4-7.104-6.848-14.688-13.824-22.72-20.896-4.608-4.8-8.832-10.272-12.736-16.384-4.608-6.304-6.912-13.632-6.912-21.984 0-8.128 2.368-14.816 7.072-20.128 4-5.12 7.904-9.504 11.68-13.312l26.144-21.696c16.256-13.408 30.528-28.192 42.784-44.448 11.552-16.448 17.568-38.016 18.016-64.576 0-11.008-1.408-21.632-4.224-31.872h200.896c19.68 0.032 35.68 16.16 35.68 36.032v440c0 19.872-16 36-35.648 36zM504.384 321.184h-80.928v-81.728h-39.2v81.728h-80.928v39.584h80.928v81.728h39.2v-81.728h80.928v-39.584z" />
<glyph unicode="&#xe610;" d="M482.752 480h-453.504c-16.064 0-29.248-13.184-29.248-29.248v-453.504c0-16.064 13.184-29.248 29.248-29.248h453.504c16.064 0 29.248 13.184 29.248 29.248v453.504c0 16.064-13.184 29.248-29.248 29.248zM434.56 192.8h-70.304v-188.256h-71.68v188.256h-49.792v67.776h49.76c0 0 0 27.776 0 57.888 0 45.504 29.44 87.296 97.184 87.296 27.36 0 47.68-2.656 47.68-2.656l-1.632-63.264c0 0-20.672 0.192-43.264 0.192-24.448 0-28.32-11.264-28.32-29.952 0-2.304 0-3.136 0-3.2 0-5.248 0-17.952 0-46.304h73.504l-3.136-67.776z" />
<glyph unicode="&#xe611;" d="M384 223.808l-192 256.192-192-256 384-0.192z" />
<glyph unicode="&#xe612;" d="M0 480l192-256.192 192 256.192h-384z" />
<glyph unicode="&#xe613;" d="M384 32.032l-384 223.936 384 224.032v-447.968z" />
<glyph unicode="&#xe614;" d="M0 480l384-224.032-384-223.936v447.968z" />
<glyph unicode="&#xe615;" d="M383.744 288.064h-383.744l191.872 191.936 191.872-191.936z" />
<glyph unicode="&#xe616;" d="M191.872 288.064l-191.872 191.936h383.744l-191.872-191.936z" />
<glyph unicode="&#xe617;" d="M213.333 480c-117.824 0-213.333-95.531-213.333-213.376 0-117.803 95.51-213.312 213.333-213.312 117.824 0 213.333 95.51 213.333 213.312 0 117.846-95.51 213.376-213.333 213.376zM213.333 138.646c-70.677 0-128 57.301-128 127.978 0 70.72 57.322 128.022 128 128.022 70.698 0 128-57.301 128-128.022 0-70.678-57.301-127.978-128-127.978z" />
<glyph unicode="&#xe618;" d="M213.333 480c-117.824 0-213.333-95.488-213.333-213.312 0-117.846 95.51-213.376 213.333-213.376 117.824 0 213.333 95.531 213.333 213.376 0 117.824-95.51 213.312-213.333 213.312zM213.333 138.666c-70.677 0-128 57.322-128 128.022 0 70.656 57.322 127.957 128 127.957 70.698 0 128-57.301 128-127.957 0-70.698-57.301-128.022-128-128.022zM213.333 330.667c-35.35 0-64-28.651-64-63.979 0-35.37 28.65-64.021 64-64.021 35.35 0 64 28.65 64 64.022 0 35.328-28.65 63.978-64 63.978z" />
<glyph unicode="&#xe619;" d="M106.666 480h213.334c58.923 0 106.666-47.744 106.666-106.666v-213.355c0-58.923-47.744-106.666-106.666-106.666h-213.333c-58.901 0-106.666 47.744-106.666 106.666v213.354c0 58.923 47.766 106.667 106.666 106.667z" />
<glyph unicode="&#xe61a;" d="M320 480h-213.333c-58.901 0-106.666-47.765-106.666-106.666v-213.355c0-58.923 47.766-106.666 106.666-106.666h213.333c58.923 0 106.666 47.744 106.666 106.666v213.354c0 58.902-47.744 106.667-106.666 106.667zM351.19 310.038l-153.046-153.046c-3.114-3.115-8.214-3.115-11.306 0l-22.635 22.805c-3.114 3.158-8.214 8.298-11.306 11.435l-52.63 55.317c-1.536 1.578-2.368 3.733-2.368 5.781 0 2.090 0.832 4.053 2.368 5.632l23.061 20.8c1.558 1.6 3.648 2.346 5.718 2.346 2.026 0 4.053-0.79 5.611-2.346l52.181-53.248c3.094-3.178 8.192-3.178 11.306 0l119.125 118.762c3.115 3.114 8.192 3.114 11.286 0l22.635-22.827c3.094-3.114 3.094-8.298 0-11.413z" />
<glyph unicode="&#xe61b;" d="M176 480h-160c-8.832 0-16-7.168-16-16v-160c0-8.832 7.168-16 16-16h160c8.832 0 16 7.168 16 16v160c0 8.832-7.168 16-16 16zM176 224h-160c-8.832 0-16-7.168-16-16v-160c0-8.832 7.168-16 16-16h160c8.832 0 16 7.168 16 16v160c0 8.832-7.168 16-16 16zM496 480h-224c-8.832 0-16-7.168-16-16v-32c0-8.832 7.168-16 16-16h224c8.864 0 16 7.168 16 16v32c0 8.832-7.136 16-16 16zM496 352h-224c-8.832 0-16-7.168-16-16v-32c0-8.832 7.168-16 16-16h224c8.864 0 16 7.168 16 16v32c0 8.832-7.136 16-16 16zM496 224h-224c-8.832 0-16-7.168-16-16v-32c0-8.832 7.168-16 16-16h224c8.864 0 16 7.168 16 16v32c0 8.832-7.136 16-16 16zM496 96h-224c-8.832 0-16-7.168-16-16v-32c0-8.832 7.168-16 16-16h224c8.864 0 16 7.168 16 16v32c0 8.832-7.136 16-16 16z" />
<glyph unicode="&#xe61c;" d="M496 480h-480c-8.832 0-16-7.168-16-16v-32c0-8.832 7.168-16 16-16h480c8.832 0 16 7.168 16 16v32c0 8.832-7.168 16-16 16zM496 352h-480c-8.832 0-16-7.168-16-16v-32c0-8.832 7.168-16 16-16h480c8.832 0 16 7.168 16 16v32c0 8.832-7.168 16-16 16zM496 224h-480c-8.832 0-16-7.168-16-16v-32c0-8.832 7.168-16 16-16h480c8.832 0 16 7.168 16 16v32c0 8.832-7.168 16-16 16zM496 96h-480c-8.832 0-16-7.168-16-16v-32c0-8.832 7.168-16 16-16h480c8.832 0 16 7.168 16 16v32c0 8.832-7.168 16-16 16z" />
<glyph unicode="&#xe61d;" d="M496 448h-320c-8.832 0-16-7.168-16-16v-32c0-8.832 7.168-16 16-16h320c8.832 0 16 7.168 16 16v32c0 8.832-7.168 16-16 16zM496 288h-320c-8.832 0-16-7.168-16-16v-32c0-8.832 7.168-16 16-16h320c8.832 0 16 7.168 16 16v32c0 8.832-7.168 16-16 16zM496 128h-320c-8.832 0-16-7.168-16-16v-32c0-8.832 7.168-16 16-16h320c8.832 0 16 7.168 16 16v32c0 8.832-7.168 16-16 16zM128 416c0-35.346-28.654-64-64-64-35.346 0-64 28.654-64 64 0 35.346 28.654 64 64 64 35.346 0 64-28.654 64-64zM128 256c0-35.346-28.654-64-64-64-35.346 0-64 28.654-64 64 0 35.346 28.654 64 64 64 35.346 0 64-28.654 64-64zM128 96c0-35.346-28.654-64-64-64-35.346 0-64 28.654-64 64 0 35.346 28.654 64 64 64 35.346 0 64-28.654 64-64z" />
<glyph unicode="&#xe61e;" d="M496 480h-384c-8.832 0-16-7.168-16-16v-32c0-8.832 7.168-16 16-16h384c8.832 0 16 7.168 16 16v32c0 8.832-7.168 16-16 16zM496 352h-384c-8.832 0-16-7.168-16-16v-32c0-8.832 7.168-16 16-16h384c8.832 0 16 7.168 16 16v32c0 8.832-7.168 16-16 16zM496 224h-384c-8.832 0-16-7.168-16-16v-32c0-8.832 7.168-16 16-16h384c8.832 0 16 7.168 16 16v32c0 8.832-7.168 16-16 16zM496 96h-384c-8.832 0-16-7.168-16-16v-32c0-8.832 7.168-16 16-16h384c8.832 0 16 7.168 16 16v32c0 8.832-7.168 16-16 16zM48 480h-32c-8.832 0-16-7.168-16-16v-32c0-8.832 7.168-16 16-16h32c8.832 0 16 7.168 16 16v32c0 8.832-7.168 16-16 16zM48 352h-32c-8.832 0-16-7.168-16-16v-32c0-8.832 7.168-16 16-16h32c8.832 0 16 7.168 16 16v32c0 8.832-7.168 16-16 16zM48 224h-32c-8.832 0-16-7.168-16-16v-32c0-8.832 7.168-16 16-16h32c8.832 0 16 7.168 16 16v32c0 8.832-7.168 16-16 16zM48 96h-32c-8.832 0-16-7.168-16-16v-32c0-8.832 7.168-16 16-16h32c8.832 0 16 7.168 16 16v32c0 8.832-7.168 16-16 16z" />
<glyph unicode="&#xe61f;" d="M112 480h-96c-8.832 0-16-7.168-16-16v-96c0-8.832 7.168-16 16-16h96c8.832 0 16 7.168 16 16v96c0 8.832-7.168 16-16 16zM112 320h-96c-8.832 0-16-7.168-16-16v-96c0-8.832 7.168-16 16-16h96c8.832 0 16 7.168 16 16v96c0 8.832-7.168 16-16 16zM272 480h-96c-8.832 0-16-7.168-16-16v-96c0-8.832 7.168-16 16-16h96c8.832 0 16 7.168 16 16v96c0 8.832-7.168 16-16 16zM272 320h-96c-8.832 0-16-7.168-16-16v-96c0-8.832 7.168-16 16-16h96c8.832 0 16 7.168 16 16v96c0 8.832-7.168 16-16 16zM432 480h-96c-8.832 0-16-7.168-16-16v-96c0-8.832 7.168-16 16-16h96c8.832 0 16 7.168 16 16v96c0 8.832-7.168 16-16 16zM432 320h-96c-8.832 0-16-7.168-16-16v-96c0-8.832 7.168-16 16-16h96c8.832 0 16 7.168 16 16v96c0 8.832-7.168 16-16 16zM112 160h-96c-8.832 0-16-7.168-16-16v-96c0-8.832 7.168-16 16-16h96c8.832 0 16 7.168 16 16v96c0 8.832-7.168 16-16 16zM272 160h-96c-8.832 0-16-7.168-16-16v-96c0-8.832 7.168-16 16-16h96c8.832 0 16 7.168 16 16v96c0 8.832-7.168 16-16 16zM432 160h-96c-8.832 0-16-7.168-16-16v-96c0-8.832 7.168-16 16-16h96c8.832 0 16 7.168 16 16v96c0 8.832-7.168 16-16 16z" />
<glyph unicode="&#xe620;" d="M208 480h-192c-8.832 0-16-7.168-16-16v-192c0-8.832 7.168-16 16-16h192c8.832 0 16 7.168 16 16v192c0 8.832-7.168 16-16 16zM496 480h-192c-8.832 0-16-7.168-16-16v-192c0-8.832 7.168-16 16-16h192c8.832 0 16 7.168 16 16v192c0 8.832-7.168 16-16 16zM208 192h-192c-8.832 0-16-7.168-16-16v-192c0-8.832 7.168-16 16-16h192c8.832 0 16 7.168 16 16v192c0 8.832-7.168 16-16 16zM496 192h-192c-8.832 0-16-7.168-16-16v-192c0-8.832 7.168-16 16-16h192c8.832 0 16 7.168 16 16v192c0 8.832-7.168 16-16 16z" />
<glyph unicode="&#xe622;" d="M616.050 473.742c-8.306 8.362-21.846 8.362-30.151 0l-318.18-316.757c-8.306-8.363-21.902-8.363-30.208 0l-139.378 142.052c-4.153 4.21-9.558 6.258-14.962 6.314-5.518 0-11.094-2.048-15.246-6.258l-61.611-55.466c-4.096-4.21-6.314-9.5-6.314-15.018s2.219-11.321 6.314-15.417l231.196-238.933c8.306-8.306 21.902-8.306 30.208 0l408.747 408.121c8.306 8.306 8.306 22.073 0 30.435l-60.416 60.928z" horiz-adv-x="682" />
<glyph unicode="&#xe623;" d="M256 480c-141.355 0-256-114.645-256-256s114.645-256 256-256 256 114.645 256 256-114.645 256-256 256zM256 96c-70.698 0-128 57.301-128 128s57.302 128 128 128 128-57.302 128-128-57.301-128-128-128z" />
<glyph unicode="&#xe624;" d="M480 181.354h-181.333v-181.354c0-5.866-4.779-10.666-10.666-10.666h-85.334c-5.888 0-10.666 4.8-10.666 10.666v181.355h-181.333c-5.888 0-10.666 4.757-10.666 10.646v85.354c0 5.888 4.779 10.646 10.666 10.646h181.333v181.354c0 5.888 4.779 10.667 10.666 10.667h85.334c5.888 0 10.666-4.779 10.666-10.667v-181.354h181.333c5.888 0 10.666-4.757 10.666-10.646v-85.354c0-5.888-4.779-10.646-10.666-10.646z" />
<glyph unicode="&#xe625;" d="M461.93 475.286c-6.208 6.272-16.384 6.272-22.635 0l-238.506-237.44c-6.25-6.315-16.448-6.315-22.656 0l-104.512 106.475c-3.094 3.114-7.147 4.672-11.221 4.693-4.117 0.043-8.298-1.514-11.434-4.693l-46.166-41.558c-3.094-3.158-4.758-7.083-4.758-11.2 0-4.138 1.664-8.49 4.758-11.626l105.386-110.549c6.23-6.315 16.448-16.576 22.656-22.827l45.312-45.675c6.23-6.25 16.405-6.25 22.656 0l306.496 305.92c6.251 6.25 6.251 16.576 0 22.827l-45.376 45.654z" />
<glyph unicode="&#xe626;" d="M443.2 426.24c6.678-6.678 6.678-17.622 0-24.32l-133.888-133.738c-6.678-6.678-6.678-17.621 0-24.341l133.824-133.781c6.678-6.699 6.678-17.622 0-24.32l-48.747-48.576c-6.699-6.656-17.664-6.656-24.363 0l-133.781 133.781c-6.678 6.656-17.664 6.656-24.341 0l-133.888-133.696c-6.677-6.678-17.664-6.678-24.341 0l-48.682 48.64c-6.678 6.656-6.678 17.622 0 24.298l133.93 133.738c6.678 6.656 6.678 17.622 0 24.32l-133.803 133.824c-6.678 6.699-6.678 17.664 0 24.32l48.725 48.598c6.678 6.677 17.642 6.677 24.341-0.022l133.781-133.76c6.698-6.72 17.664-6.72 24.341-0.022l133.888 133.696c6.656 6.656 17.642 6.656 24.341 0l48.661-48.64z" />
<glyph unicode="&#xe627;" d="M495.957 138.666h-479.894c-8.81 0-16-7.659-16-17.088v-72.96c0-9.046 7.189-16.426 16-16.426h479.894c8.832 0 16 7.382 16 16.426v72.96c0 9.43-7.168 17.088-16 17.088zM495.957 309.333h-479.894c-8.81 0-16-7.68-16-17.088v-72.96c0-9.067 7.189-16.426 16-16.426h479.894c8.832 0 16 7.36 16 16.426v72.96c0 9.408-7.168 17.088-16 17.088zM495.957 480h-479.894c-8.81 0-16-7.702-16-17.088v-72.981c0-9.024 7.189-16.384 16-16.384h479.894c8.832 0 16 7.36 16 16.384v72.981c0 9.387-7.168 17.088-16 17.088z" />
<glyph unicode="&#xe628;" d="M440.214 365.525c-9.962 16.47-22.25 32.619-37.291 47.574-15.211 15.104-31.616 27.478-48.406 37.418l29.483 29.483c0 0 42.666 0 64-21.334s21.334-64.022 21.334-64.022l-29.12-29.12zM192 117.334h-85.334v85.312l10.24 10.262c17.344-8.192 34.582-19.733 50.090-35.243s27.072-32.747 35.243-50.112l-10.24-10.219zM415.574 340.885l-188.714-188.693c-9.963 16.448-22.25 32.597-37.291 47.552-15.21 15.082-31.616 27.435-48.406 37.418l189.077 189.077c17.344-8.192 34.582-19.733 50.091-35.243 15.552-15.488 27.072-32.747 35.243-50.112zM64 416.022v-341.354h341.334v149.333l64 64.811v-235.456c0-23.574-19.115-42.688-42.666-42.688h-384c-23.552 0-42.666 19.115-42.666 42.688v383.978c0 23.552 19.114 42.666 42.666 42.666h234.88l-64.022-63.978h-149.525z" />
<glyph unicode="&#xe629;" d="M256 480c-141.376 0-256-114.624-256-256s114.624-256 256-256c141.398 0 256 114.624 256 256 0 141.376-114.582 256-256 256zM421.418 276.053l-183.616-183.637c-3.733-3.755-9.834-3.755-13.568 0l-27.136 27.413c-3.733 3.755-9.834 9.92-13.568 13.717l-63.147 66.368c-1.856 1.877-2.838 4.459-2.838 6.976 0 2.454 0.981 4.864 2.838 6.72l27.669 24.939c1.877 1.92 4.394 2.858 6.848 2.838 2.432-0.022 4.864-0.96 6.72-2.838l62.635-63.936c3.733-3.798 9.834-3.798 13.568 0l142.912 142.549c3.755 3.776 9.834 3.776 13.589 0l27.115-27.413c3.733-3.733 3.733-9.92-0.022-13.696z" />
<glyph unicode="&#xe62a;" d="M474.262 254.976c50.24 51.499 50.219 134.912 0 186.411-25.664 26.304-59.498 39.168-93.12 38.613-47.040-0.81-124.651-64.64-124.651-64.64s-79.786 64.726-128 64.64c-32.853-0.064-65.686-12.906-90.731-38.613-50.218-51.498-50.24-134.912 0-186.411l218.24-223.637 218.262 223.637z" />
<glyph unicode="&#xe62b;" d="M181.056 216.064c-45.184 0-81.814 36.906-81.814 82.411 0 45.525 36.63 82.411 81.814 82.411s81.814-36.886 81.814-82.411c0-45.504-36.63-82.411-81.814-82.411zM181.056 480.192c-99.99 0-181.056-81.643-181.056-182.379 0-95.146 82.005-217.877 136.768-277.632 20.458-22.315 44.288-52.374 44.288-52.374s25.6 30.23 47.552 53.206c54.677 57.259 133.504 172.182 133.504 276.8 0.022 100.736-81.046 182.378-181.056 182.378z" />
<glyph unicode="&#xe62c;" d="M480.106 96v-0.341l-117.44 117.462v-74.496c0-23.531-19.115-42.624-42.666-42.624h-277.334c-23.552 0-42.666 19.094-42.666 42.624v298.688c0 23.574 19.114 42.688 42.666 42.688h277.334c23.552 0 42.666-19.114 42.666-42.688v-74.966l117.334 117.334v0.32c17.664 0 32-14.315 32-32v-320c0-17.622-14.272-31.914-31.894-32z" />
<glyph unicode="&#xe62d;" d="M256 480c-12.096 0-22.976-5.099-30.742-13.206 0 0-97.877-114.794-139.925-114.794-42.005 0-42.666 0-42.666 0-23.552 0-42.666-19.094-42.666-42.666v-128c0-23.552 19.114-42.646 42.666-42.646 0 0-0.426 0 42.24 0 43.35 0 138.368-113.43 138.368-113.43s7.616-14.592 32.726-14.592c23.552 0 42.666 19.115 42.666 42.688v383.978c0 23.552-19.115 42.666-42.666 42.666zM421.952 429.888l-23.702-35.498c43.328-35.178 71.082-88.875 71.082-149.056 0-60.203-27.755-113.877-71.082-149.078l23.702-35.498c54.741 42.966 90.048 109.589 90.048 184.576s-35.286 141.61-90.048 184.554zM374.4 358.678l-23.936-35.819c20.651-19.478 33.707-46.912 33.707-77.525s-13.056-58.069-33.707-77.525l23.936-35.84c31.957 27.413 52.267 67.968 52.267 113.365 0 45.398-20.31 85.974-52.267 113.344z" />
<glyph unicode="&#xe62e;" d="M256 479.978c-141.333 0-255.936-114.603-255.936-255.978 0-141.398 114.603-256 255.936-256 141.355 0 255.957 114.603 255.957 256 0 141.376-114.582 255.978-255.958 255.978zM350.123 123.52l-7.466-7.445c-6.208-6.229-16.661-6.528-23.211-0.64l-96.406 84.373c-6.571 5.866-11.541 17.899-11.114 26.666l8.939 152.192c0.47 8.81 8.022 16 16.832 16h10.518c8.811 0 16.362-7.19 16.79-16l7.317-126.57c0.448-8.81 5.589-21.355 11.435-27.947l67.050-77.418c5.824-6.528 5.568-16.981-0.683-23.211z" />
<glyph unicode="&#xe62f;" d="M256 480c-169.322 0-256.256-170.645-256.256-170.645s65.6-170.688 256.256-170.688c172.65 0 256.235 170.005 256.235 170.005s-84.245 171.328-256.235 171.328zM256.384 202.666c-61.91 0-106.666 46.678-106.666 106.688 0 59.989 44.757 106.646 106.666 106.646 61.909 0 106.666-46.656 106.666-106.646 0-60.011-44.757-106.688-106.666-106.688zM256.384 373.355c-35.37-0.064-64-29.739-64-64s28.63-64.022 64-64.022c35.413 0 64 29.76 64 64.022 0 34.282-28.587 64.064-64 64z" />
<glyph unicode="&#xe630;" d="M228.63 84.053l144.661-113.302c2.368-1.834 3.798-2.794 5.205-2.794 4.010 0 5.205 2.752 5.205 7.253v107.157c0 7.574 4.992 13.589 11.712 13.589l52.587 0.064c64 0 64 42.666 64 42.666v298.646c0 0-0.618 42.666-64.298 42.666 0 0-318.635 0-383.957 0-64 0-63.766-42.666-63.766-42.666v-298.646c0 0 0-42.048 64-42.666 64-0.704 128-0.043 128-0.043s26.773-0.747 36.65-11.925z" />
<glyph unicode="&#xe631;" d="M469.334 10.56c0-23.552-19.115-42.666-42.666-42.666h-128v170.645c0 23.574-19.115 42.688-42.666 42.688h-42.666c-23.552 0-42.666-19.115-42.666-42.688v-170.645h-128c-23.552 0-42.666 19.115-42.666 42.666v256c0 10.965 4.266 20.886 11.094 28.438l-0.427 0.896 195.2 175.36c15.702 11.818 41.258 11.818 56.96 0l195.84-175.36-0.214-1.152c6.699-7.51 10.88-17.322 10.88-28.181v-256z" />
<glyph unicode="&#xe632;" d="M213.333 480c-117.824 0-213.333-95.531-213.333-213.333s95.51-213.334 213.333-213.334 213.355 95.531 213.355 213.334-95.531 213.333-213.355 213.333zM234.667 160c0-11.776-9.536-21.312-21.333-21.312s-21.334 9.536-21.334 21.312v128.022c0 11.776 9.536 21.334 21.334 21.334s21.334-9.558 21.334-21.334v-128.022zM213.333 352.022c-11.797 0-21.333 9.536-21.333 21.312 0 11.797 9.536 21.334 21.334 21.334s21.334-9.536 21.334-21.334c0-11.776-9.536-21.312-21.334-21.312z" />
<glyph unicode="&#xe633;" d="M213.333 480c-117.824 0-213.333-95.531-213.333-213.312 0-117.824 95.51-213.355 213.333-213.355s213.333 95.531 213.333 213.355c0 117.781-95.51 213.312-213.333 213.312zM213.333 138.666c-11.797 0-21.333 9.536-21.333 21.312 0 11.798 9.536 21.354 21.334 21.354s21.334-9.558 21.334-21.355c0-11.776-9.536-21.312-21.334-21.312zM234.667 245.312c0-11.776-9.536-21.334-21.333-21.334s-21.334 9.558-21.334 21.334v128c0 11.798 9.536 21.334 21.334 21.334s21.334-9.536 21.334-21.334v-128z" />
<glyph unicode="&#xe634;" d="M213.333 53.334c-117.824 0-213.333 95.531-213.333 213.354 0 117.782 95.51 213.312 213.333 213.312 117.824 0 213.333-95.53 213.333-213.312 0-117.824-95.51-213.354-213.333-213.354zM213.333 138.666c11.776 0 21.333 9.536 21.333 21.312 0 11.798-9.536 21.354-21.334 21.354s-21.334-9.558-21.334-21.355c0-11.776 9.558-21.312 21.334-21.312zM128 352l21.334-21.334c22.848 21.589 46.486 28.202 69.824 28.202 20.374 0 35.008-10.986 35.008-27.989 0-12.886-6.379-22.144-14.891-29.675 0.405 0.363-28.95-18.838-38.101-31.36-2.838-3.862-9.173-17.195-9.173-24.534 0-5.269 0-21.334 0-21.334l41.088-0.086 4.438 26.176c0.64 3.819 2.624 7.253 5.888 10.304-3.946-3.67 28.992 19.626 40.022 32.17-2.752-3.157 28.245 27.243 9.579 66.155-17.877 37.291-69.462 42.496-101.013 35.946-38.698-8-56.896-33.898-64-42.645z" />
<glyph unicode="&#xe635;" d="M469.334 480h-426.666c-23.552 0-42.666-19.115-42.666-42.688v-426.646c0-23.552 19.114-42.666 42.666-42.666h426.666c23.574 0 42.666 19.115 42.666 42.666v426.646c0 23.574-19.094 42.688-42.666 42.688zM149.333 437.312c11.776 0 21.333-9.514 21.333-21.312s-9.558-21.334-21.334-21.334-21.334 9.536-21.334 21.334 9.557 21.312 21.334 21.312zM85.334 437.312c11.776 0 21.334-9.514 21.334-21.312s-9.558-21.334-21.334-21.334-21.334 9.536-21.334 21.334 9.558 21.312 21.334 21.312zM448 32h-384v320h384v-320z" />
<glyph unicode="&#xe636;" d="M469.334 394.666h-42.666v42.646c0 23.573-19.115 42.688-42.666 42.688h-341.334c-23.552 0-42.666-19.115-42.666-42.688v-341.312c0-23.552 19.114-42.688 42.666-42.688h42.666v-42.645c0-23.552 19.115-42.666 42.666-42.666h341.334c23.552 0 42.667 19.115 42.667 42.666v341.334c0 23.552-19.115 42.666-42.666 42.666zM149.333 437.312c11.776 0 21.333-9.514 21.333-21.312s-9.558-21.334-21.334-21.334-21.334 9.536-21.334 21.334 9.557 21.312 21.334 21.312zM85.334 437.312c11.776 0 21.334-9.514 21.334-21.312s-9.558-21.334-21.334-21.334-21.334 9.536-21.334 21.334 9.558 21.312 21.334 21.312zM64 117.334v234.666h298.666v-234.666h-298.666zM448 32h-298.666v21.312h234.666c23.552 0 42.666 19.115 42.666 42.688v170.667h21.334v-234.667z" />
<glyph unicode="&#xe637;" d="M448 480h-405.334c-23.552 0-42.666-19.115-42.666-42.666v-405.334c0-23.552 19.114-42.666 42.666-42.666h85.334v64h-64v298.666h362.666v-298.666h-64v-64h85.334c23.552 0 42.666 19.115 42.666 42.666v405.334c0 23.552-19.115 42.666-42.666 42.666zM85.334 394.666c-11.776 0-21.334 9.558-21.334 21.334 0 11.798 9.558 21.334 21.334 21.334 11.797 0 21.334-9.536 21.334-21.334 0-11.776-9.536-21.334-21.334-21.334zM149.333 394.666c-11.776 0-21.334 9.558-21.334 21.334 0 11.798 9.557 21.334 21.334 21.334 11.797 0 21.333-9.536 21.333-21.334 0-11.776-9.536-21.334-21.334-21.334zM375.339 170.197l-106.901 108.63c-4.757 4.757-10.688 7.104-16.832 8.256-1.429 0.32-2.838 0.726-4.31 0.832-1.238 0.086-2.389-0.042-3.626-0.128-3.35-0.107-6.613-0.747-9.77-1.878-0.064-0.021-0.128-0.042-0.192-0.064-4.138-1.536-8.128-3.648-11.477-6.998l-106.901-108.63c-12.075-12.010-12.075-31.552 0-43.584s31.659-12.032 43.733 0l54.272 53.504v-158.805c0-17.685 14.336-32 32-32s32 14.315 32 32v158.805l54.272-53.546c12.053-12.032 31.637-12.032 43.733 0s12.075 31.574 0 43.606z" />
<glyph unicode="&#xe638;" d="M361.664 176.789c-5.675 5.76-7.552 16.384-4.16 23.702 0 0 23.616 51.2 23.616 88.832 0 105.344-85.248 190.678-190.4 190.678s-190.379-85.334-190.379-190.678c0-105.28 85.248-190.656 190.4-190.656 37.59 0 88.725 23.659 88.725 23.659 7.339 3.37 17.984 1.493 23.616-4.202l145.707-145.877c5.738-5.674 15.040-5.674 20.714 0l37.866 37.909c5.717 5.76 5.717 15.040 0 20.757l-145.707 145.877zM190.72 186.666c-56.512 0-102.528 46.059-102.528 102.656 0 56.618 45.995 102.678 102.528 102.678s102.528-46.058 102.528-102.678c0-56.597-45.995-102.656-102.528-102.656z" />
<glyph unicode="&#xe639;" d="M426.666 10.688h-21.334c0 0-21.334 0-21.334 21.355v74.624c0 5.888-4.8 10.666-10.666 10.666s-10.666-4.779-10.666-10.666l-0.171-91.648c0-12.971-42.88-47.019-138.496-47.019s-138.496 34.048-138.496 47.019l-0.171 91.648c0 5.888-4.8 10.666-10.666 10.666-5.888 0-10.666-4.779-10.666-10.666v-74.624c0-21.355-21.334-21.355-21.334-21.355h-21.334c0 0-21.334 0-21.334 21.355v111.957c0 62.315 61.718 115.2 147.84 135.254 0 0 26.326-23.595 76.16-23.595 49.814 0 76.16 23.595 76.16 23.595 86.123-20.054 147.84-72.939 147.84-135.254v-111.957c0-21.355-21.334-21.355-21.334-21.355zM223.51 287.978c-52.992 0-96 43.008-96 96 0 53.014 42.965 96.022 96 96.022 53.034 0 96-43.008 96-96.022 0-52.992-42.986-96-96-96z" />
<glyph unicode="&#xe63a;" d="M256 245.333c-41.6 0-256 173.013-256 173.013v18.986c0 23.552 19.114 42.667 42.645 42.667h426.688c23.552 0 42.666-19.115 42.666-42.667l-0.341-21.333c0 0-212.054-170.667-255.659-170.667zM256 186.666c45.611 0 255.659 165.334 255.659 165.334l0.341-256c0-23.552-19.115-42.666-42.666-42.666h-426.688c-23.53 0-42.645 19.115-42.645 42.666l0.342 256c0 0 214.059-165.333 255.659-165.333z" />
<glyph unicode="&#xe63b;" d="M383.702-32.149h-341.077c-23.53 0-42.624 19.136-42.624 42.688v213.462c0 23.552 19.093 42.688 42.624 42.688h21.312v64.022c0 82.538 66.816 149.418 149.226 149.418s149.226-66.901 149.226-149.418v-64.022h21.312c23.552 0 42.624-19.114 42.624-42.688v-213.462c0-23.552-19.072-42.688-42.624-42.688zM298.432 330.709c0 47.125-38.187 85.376-85.269 85.376s-85.269-38.23-85.269-85.376v-64.022h170.538v64.022z" />
<glyph unicode="&#xe63c;" d="M351.466 411.798l-0.043-0.043c-0.448 0.341-0.832 0.768-1.322 1.11-14.55 9.813-34.454 6.165-44.416-8.171-9.962-14.293-6.25-33.877 8.298-43.69 0.384-0.214 0.747-0.363 1.13-0.576l-0.128-0.192c41.365-28.394 68.544-75.499 68.544-128.875 0-86.784-71.573-157.142-159.808-157.142-88.234 0-159.786 70.358-159.786 157.142 0 53.376 27.157 100.48 68.544 128.875l-0.149 0.192c0.363 0.213 0.746 0.362 1.109 0.576 14.571 9.814 18.262 29.376 8.32 43.69-9.984 14.315-29.867 17.984-44.438 8.171-0.469-0.341-0.853-0.768-1.323-1.11l-0.043 0.043c-57.962-39.766-95.957-105.686-95.957-180.438 0-121.493 100.138-219.99 223.702-219.99s223.723 98.496 223.723 219.989c0 74.752-38.016 140.672-95.957 180.438zM223.702 203.221c17.642 0 31.958 14.315 31.958 32v214.208c0 17.28-14.315 31.296-31.958 31.296s-31.958-14.016-31.958-31.296v-214.186c0-17.707 14.315-32.022 31.958-32.022z" />
<glyph unicode="&#xe63d;" d="M0 234.667c147.2 16.341 228.992 98.133 245.333 245.333 16.384-147.2 98.155-228.992 245.355-245.333-147.2-16.362-228.971-98.112-245.355-245.355-16.341 147.221-98.133 228.992-245.333 245.355z" />
<glyph unicode="&#xe63e;" d="M426.666 437.334h-42.666v10.666c0 17.685-14.336 32-32 32s-32-14.315-32-32v-10.666h-149.333v10.666c0 17.685-14.315 32-32 32s-32-14.315-32-32v-10.666h-42.666c-35.349 0-64-29.589-64-66.070v-296.618c0-35.328 28.651-63.978 64-63.978h362.666c35.349 0 64 28.651 64 63.978v296.618c0 36.48-28.651 66.070-64 66.070zM426.666 74.646h-362.666v298.666h42.666v-10.666c0-17.664 14.314-31.978 32-31.978s32 14.314 32 32v10.666h149.334v-10.666c0-17.686 14.336-32 32-32s32 14.314 32 32v10.666h42.666v-298.688zM106.666 223.978h64v64.022h-64v-64.022zM106.666 117.334h64v64h-64v-64zM213.333 117.334h64v64h-64v-64zM320 223.978h64v64.022h-64v-64.022zM213.333 223.978h64v64.022h-64v-64.022zM320 117.334h64v64h-64v-64z" />
<glyph unicode="&#xe63f;" d="M459.094 263.552c-8.704 1.258-18.005 9.152-20.714 17.514l-12.992 31.573c-4.118 7.786-3.115 19.968 2.134 26.986l21.12 28.118c5.248 7.040 4.842 18.197-1.002 24.789l-23.125 23.168c-6.635 5.803-17.75 6.23-24.832 0.96l-28.075-21.099c-7.040-5.269-19.157-6.25-26.966-2.154l-31.574 13.014c-8.426 2.666-16.298 11.99-17.493 20.693l-4.992 34.752c-1.216 8.726-9.408 16.598-18.134 17.536-0.043 0.022-5.483 0.598-16.448 0.598-10.987 0-16.427-0.576-16.427-0.576-8.746-0.917-16.939-8.81-18.154-17.536l-4.992-34.752c-1.238-8.704-9.088-18.027-17.494-20.694l-31.573-13.013c-7.786-4.118-19.925-3.136-26.944 2.133l-28.118 21.099c-7.040 5.291-18.198 4.864-24.79-0.96l-23.147-23.168c-5.803-6.613-6.251-17.75-0.981-24.79l21.078-28.117c5.29-7.019 6.251-19.179 2.176-26.987l-13.034-31.574c-2.666-8.384-11.989-16.256-20.715-17.514l-34.752-4.949c-8.704-1.259-16.576-9.43-17.515-18.198 0 0-0.576-5.418-0.576-16.405 0-10.966 0.576-16.426 0.576-16.426 0.917-8.747 8.81-16.938 17.515-18.176l34.752-4.95c8.725-1.238 18.048-9.13 20.715-17.493l13.056-31.574c4.075-7.786 3.115-19.968-2.176-26.966l-21.078-28.118c-5.291-7.040-6.55-16.598-2.816-21.205 3.734-4.608 14.421-16.043 14.464-16.086 0.022-0.043 3.627-3.328 8-7.339 4.373-4.010 22.23-9.579 29.27-4.31l28.118 21.099c7.040 5.269 19.157 6.229 26.965 2.134l31.573-12.992c8.405-2.688 16.278-11.99 17.494-20.714l4.992-34.752c1.216-8.726 9.408-16.618 18.154-17.536 0 0 5.44-0.555 16.426-0.555 10.966 0 16.406 0.555 16.406 0.555 8.726 0.918 16.918 8.81 18.134 17.536l4.992 34.752c1.216 8.726 9.088 18.026 17.493 20.714l31.574 13.014c7.786 4.096 19.925 3.115 26.966-2.134l28.118-21.12c7.082-5.269 18.219-4.842 24.832 0.981l23.082 23.125c5.824 6.635 6.25 17.792 1.002 24.832l-21.12 28.118c-5.248 6.998-6.25 19.157-2.134 26.966l12.992 31.574c2.709 8.384 11.99 16.277 20.714 17.493l34.752 4.95c8.747 1.238 16.576 9.408 17.536 18.176 0 0 0.576 5.462 0.576 16.427 0 10.987-0.576 16.405-0.576 16.405-0.96 8.768-8.789 16.939-17.536 18.197l-34.752 4.95zM256 160.022c-35.35 0-64 28.63-64 64 0 35.349 28.65 64 64 64 35.328 0 63.957-28.672 63.957-64 0-35.37-28.63-64-63.958-64z" />
<glyph unicode="&#xe640;" d="M352 352v0h64c17.664 0 32-14.336 32-32v-320c0-17.664-14.336-32-32-32h-336c-44.181 0-80 35.818-80 80v352c0 44.182 35.819 80 80 80h336c17.664 0 32-14.336 32-32s-14.336-32.022-32-32.022h-320c-17.664 0-32-14.315-32-31.978s14.336-32 32-32h74.666v-128l32 21.334 32-21.334v128h117.334z" />
<glyph unicode="&#xe641;" d="M0 234.688c0-17.685 14.315-32.022 32-32.022h158.784l-53.525-54.25c-12.032-12.075-12.032-31.637 0-43.733s31.573-12.075 43.606 0l108.587 106.901c11.456 11.456 12.032 34.197 0 46.208-10.005 9.984-108.587 106.901-108.587 106.901-12.032 12.075-31.573 12.075-43.606 0-12.032-12.074-12.032-31.659 0-43.755l53.547-54.272h-158.805c-17.686 0-32-14.315-32-31.979zM384 480h-341.334c-23.573 0-42.666-19.094-42.666-42.666v-85.334h64v64h298.666v-362.666h-298.666v64.022h-64v-85.334c0-23.574 19.093-42.688 42.666-42.688h341.334c23.574 0 42.666 19.115 42.666 42.688v405.312c0 23.574-19.094 42.666-42.666 42.666z" />
<glyph unicode="&#xe642;" d="M479.296 415.978h-137.963c0 35.37-28.672 64-64 64h-42.666c-35.35 0-64-28.651-64-64h-137.963c-18.048 0-32.704-14.315-32.704-32 0-17.664 14.656-31.978 32.704-31.978h31.296v-298.666c0-53.034 31.126-85.334 85.333-85.334h213.333c54.208 0 85.334 32.298 85.334 85.334v298.666h31.296c18.048 0 32.704 14.315 32.704 31.978 0 17.685-14.656 32-32.704 32zM384 53.334c0-11.798-9.536-21.376-21.334-21.376h-213.333c-11.776 0-21.334 9.579-21.334 21.376v298.666h256v-298.666zM192 74.666h21.334c11.798 0 21.334 9.536 21.334 21.334v192c0 11.776-9.536 21.334-21.334 21.334h-21.334c-11.776 0-21.334-9.558-21.334-21.334v-192c0-11.798 9.558-21.334 21.334-21.334zM298.666 74.666h21.334c11.798 0 21.334 9.536 21.334 21.334v192c0 11.776-9.536 21.334-21.334 21.334h-21.334c-11.798 0-21.334-9.558-21.334-21.334v-192c0-11.798 9.536-21.334 21.334-21.334z" />
<glyph unicode="&#xe643;" d="M469.334 416c0 0-64 0-170.666 0-21.184 0-43.712 64-62.678 64-91.243 0-193.322 0-193.322 0-23.552 0-42.666-19.115-42.666-42.666v-362.688c0-23.552 19.114-42.666 42.666-42.666h426.666c23.552 0 42.666 19.115 42.666 42.666v298.688c0 23.552-19.115 42.666-42.666 42.666zM448 95.978h-384v320c0 0 107.328 0.043 128 0.043s42.666-64 64-64 192-0.021 192-0.021v-256.022z" />
<glyph unicode="&#xe644;" d="M447.702 480.022c0 0-318.613 0-383.957 0-64 0-63.766-64-63.766-64v-255.978c0 0 0-63.382 64-64 64.022-0.704 128.022-0.043 128.022-0.043s26.773-0.747 36.65-11.925l144.661-113.301c2.346-1.856 3.818-2.774 5.184-2.774 4.010 0 5.205 2.709 5.205 7.253v107.157c0 7.574 4.992 13.589 11.712 13.589l52.587 0.043c64 0 64 64 64 64v255.958c0 0-0.618 64.021-64.298 64.021zM448 160.043h-128v-64l-82.304 64h-173.696v255.957h384v-255.957z" />
<glyph unicode="&#xe645;" d="M364.779 417.43c-83.435 83.413-218.731 83.413-302.166-0.022-83.456-83.456-83.456-218.752-0.022-302.187 83.435-83.435 218.752-83.435 302.187 0 83.435 83.456 83.435 218.752 0 302.208zM313.664 166.336c-9.216-9.216-24.128-9.216-33.322 0l-66.709 66.688-66.688-66.688c-9.216-9.216-24.128-9.216-33.322 0-9.216 9.238-9.237 24.128-0.022 33.322l66.709 66.709-66.71 66.688c-9.216 9.216-9.216 24.128 0 33.322 9.216 9.216 24.15 9.216 33.344 0l66.666-66.666 66.688 66.666c9.216 9.216 24.128 9.216 33.322 0 9.216-9.195 9.238-24.128 0.022-33.322l-66.688-66.688 66.688-66.709c9.238-9.195 9.238-24.106 0.022-33.322z" />
<glyph unicode="&#xe646;" d="M213.696 480c-118.016 0-213.696-95.659-213.696-213.674s95.68-213.675 213.696-213.675c118.016 0 213.696 95.659 213.696 213.675s-95.68 213.674-213.696 213.674zM320.512 244.97h-85.462v-85.461c0-11.818-9.558-21.376-21.376-21.376-11.797 0-21.376 9.558-21.376 21.376v85.462h-85.44c-11.819 0-21.376 9.558-21.376 21.376s9.558 21.376 21.376 21.376h85.462v85.462c0 11.798 9.578 21.354 21.376 21.354 11.819 0 21.376-9.558 21.376-21.354v-85.462h85.462c11.798 0 21.355-9.558 21.355-21.376s-9.579-21.376-21.376-21.376z" />
<glyph unicode="&#xe647;" d="M64 53.334l-64 64 149.333 149.334-149.333 149.333 64 64 213.333-213.333-213.333-213.334z" />
<glyph unicode="&#xe648;" d="M213.333 53.334l64 64-149.333 149.334 149.333 149.333-64 64-213.333-213.333 213.333-213.334z" />
<glyph unicode="&#xe649;" d="M384 480c-60.822 0-98.923-34.346-128-72.235-29.077 37.888-67.178 72.235-128 72.235-51.456 0-128-34.112-128-128s76.544-128 128-128c60.822 0 98.923 34.346 128 72.235 29.077-37.867 67.178-72.235 128-72.235 51.456 0 128 34.112 128 128s-76.544 128-128 128zM128 287.978c-10.688 0-64 3.094-64 64 0 58.474 49.173 63.786 64 64 39.147 0 61.632-23.915 89.344-64-27.712-40.085-50.197-64-89.344-64zM383.829 287.978c-39.019 0.085-61.504 23.958-89.195 64 27.733 40.085 50.219 64 89.344 64 10.688 0 64-3.094 64-64 0.022-58.325-48.96-63.744-64.149-64z" />
<glyph unicode="&#xe64a;" d="M405.334 181.334h-40.726c0.235 0-0.192 0-1.942 0v85.334h42.666c58.923 0 106.666 47.744 106.666 106.666s-47.744 106.666-106.666 106.666-106.666-47.765-106.666-106.666v-40.746c0 0.234 0-0.192 0-1.92h-85.334v42.667c0 58.901-47.744 106.666-106.666 106.666s-106.666-47.766-106.666-106.666 47.744-106.667 106.666-106.667h40.746c-0.234 0 0.192 0 1.92 0v-85.333h-42.666c-58.922 0-106.666-47.744-106.666-106.666s47.744-106.666 106.666-106.666 106.666 47.744 106.666 106.666v40.747c0-0.256 0 0.171 0 1.92h85.333v-42.666c0-58.923 47.744-106.666 106.666-106.666s106.666 47.744 106.666 106.666-47.744 106.666-106.666 106.666zM362.666 373.334c0 23.573 19.115 42.666 42.666 42.666s42.666-19.115 42.666-42.666c0-23.552-19.115-42.666-42.666-42.666-11.115 0-42.666 0-42.666 0s0 30.229 0 42.666zM149.333 74.666c0-23.552-19.114-42.666-42.666-42.666s-42.666 19.115-42.666 42.666c0 23.574 19.114 42.666 42.666 42.666 11.115 0 42.666 0 42.666 0s0-30.208 0-42.666zM149.333 330.667c0 0-30.208 0-42.666 0-23.552 0-42.666 19.114-42.666 42.666 0 23.573 19.114 42.666 42.666 42.666s42.666-19.115 42.666-42.666c0-11.115 0-42.666 0-42.666zM298.666 181.334h-85.334v85.334h85.334v-85.334zM405.334 32c-23.552 0-42.666 19.115-42.666 42.666 0 11.094 0 42.666 0 42.666s30.208 0 42.666 0c23.552 0 42.666-19.094 42.666-42.666s-19.115-42.666-42.666-42.666z" />
<glyph unicode="&#xe64b;" d="M357.675 176c-19.648-31.978-54.528-82.666-144.768-101.334 0.427 5.354 0-42.666 0-42.666h53.782c17.834 0 32.298-14.336 32.298-32s-14.442-32-32.277-32h-172.16c-17.814 0-32.298 14.336-32.298 32s14.485 32 32.298 32h53.803v42.666c-79.936 20.010-121.898 59.328-144.683 100.992-8.896 15.296-3.627 34.88 11.819 43.712 15.424 8.832 35.178 3.584 44.096-11.712 0.938 0.448 33.878-68.992 121.046-68.992 87.168 0 121.13 69.291 121.13 69.291 0 0 0 0.022 0 0.043 8.918 15.296 28.672 20.544 44.075 11.712 15.488-8.832 20.8-28.416 11.84-43.712zM180.63 181.334c-53.483 0-96.832 40.747-96.832 91.029v116.608c0 50.283 43.35 91.029 96.832 91.029 53.483 0 96.853-40.746 96.853-91.029v-116.63c0-50.262-43.35-91.008-96.853-91.008z" />
<glyph unicode="&#xe64c;" d="M426.666 53.334h-362.666v362.666h149.333v64h-170.667c-23.552 0-42.666-19.115-42.666-42.666v-405.334c0-23.552 19.114-42.666 42.666-42.666h405.334c23.552 0 42.666 19.115 42.666 42.666v149.333h-64v-128zM488.256 460.118c-0.064 0.171-0.149 0.341-0.214 0.49-1.45 3.37-3.52 6.4-5.974 9.046-0.363 0.406-0.469 0.896-0.853 1.28-0.512 0.534-1.238 0.704-1.792 1.195-2.005 1.707-4.16 3.158-6.55 4.352-1.771 0.896-3.52 1.536-5.376 2.090-1.707 0.49-3.478 0.832-5.291 1.024-1.728 0.192-3.392 0.448-5.12 0.363h-147.755c-17.664 0-32-14.336-32-32s14.336-32 32-32h72.043l-179.392-179.755c-12.95-12.992-13.398-33.621-0.982-46.080s32.982-12.032 45.952 0.96l179.712 180.118v-72.555c0-17.664 14.336-32 32-32s32 14.336 32 32v149.333c0 4.31-0.875 8.406-2.411 12.139z" />
<glyph unicode="&#xe64d;" d="M256 309.333c-47.125 0-85.334-38.208-85.334-85.354 0-47.125 38.208-85.334 85.334-85.334s85.334 38.208 85.334 85.334c0 47.147-38.208 85.354-85.334 85.354zM448 416c-29.909 0-61.142 0-61.142 0l-19.925 42.666c-4.587 10.624-18.731 21.334-38.954 21.334h-141.099c-21.184 0-34.389-10.709-38.954-21.334l-19.925-42.666c0 0-32.384 0-64 0-64 0-64-42.666-64-42.666v-298.304c0 0 0-43.029 64-43.029h384c64 0 64 42.688 64 42.688v298.646c0 0 0 42.666-64 42.666zM256 95.978c-70.678 0-128 57.344-128 128.022s57.322 128 128 128 128-57.322 128-128-57.322-128.022-128-128.022z" />
<glyph unicode="&#xe64e;" d="M505.493 289.28l-106.666 170.667c-7.786 12.48-21.462 20.053-36.16 20.053h-320c-23.552 0-42.666-19.114-42.666-42.666v-341.334c0-23.552 19.114-42.666 42.666-42.666h320c14.699 0 28.373 7.574 36.16 20.032l106.666 170.667c8.682 13.845 8.682 31.424 0 45.248zM384 224c-23.552 0-42.666 19.114-42.666 42.666s19.115 42.666 42.666 42.666 42.666-19.115 42.666-42.666-19.115-42.666-42.666-42.666z" />
<glyph unicode="&#xe64f;" d="M384 480h-341.334c-23.552 0-42.666-19.115-42.666-42.666v-426.666c0-23.552 19.114-42.666 42.666-42.666h341.334c23.552 0 42.666 19.115 42.666 42.666v426.666c0 23.552-19.115 42.666-42.666 42.666zM234.667 106.666c0-5.888-4.8-10.666-10.667-10.666h-149.333c-5.888 0-10.666 4.779-10.666 10.666v21.334c0 5.888 4.778 10.666 10.666 10.666h149.333c5.867 0 10.666-4.779 10.666-10.666v-21.334zM362.666 192c0-5.888-4.8-10.666-10.666-10.666h-277.334c-5.888 0-10.666 4.779-10.666 10.666v21.334c0 5.888 4.778 10.666 10.666 10.666h277.334c5.866 0 10.666-4.779 10.666-10.666v-21.334zM362.666 277.333c0-5.888-4.8-10.666-10.666-10.666h-277.334c-5.888 0-10.666 4.779-10.666 10.666v21.334c0 5.888 4.778 10.666 10.666 10.666h277.334c5.866 0 10.666-4.779 10.666-10.666v-21.334zM362.666 362.666c0-5.888-4.8-10.666-10.666-10.666h-277.334c-5.888 0-10.666 4.779-10.666 10.666v21.334c0 5.888 4.778 10.666 10.666 10.666h277.334c5.866 0 10.666-4.778 10.666-10.666v-21.334z" />
<glyph unicode="&#xe650;" d="M442.624 233.258l-426.646 245.333c-3.306 1.899-7.381 1.877-10.646-0.022-3.307-1.899-5.333-5.418-5.333-9.238v-490.666c0-3.818 2.026-7.339 5.333-9.238 1.643-0.96 3.478-1.429 5.333-1.429 1.835 0 3.669 0.469 5.312 1.408l426.646 245.333c3.328 1.92 5.376 5.462 5.376 9.259s-2.048 7.36-5.376 9.258z" />
<glyph unicode="&#xe651;" d="M149.333 480h-128c-11.776 0-21.334-9.536-21.334-21.334v-469.334c0-11.798 9.557-21.333 21.334-21.333h128c11.776 0 21.333 9.536 21.333 21.334v469.334c0 11.798-9.558 21.334-21.334 21.334zM490.666 480h-128c-11.798 0-21.334-9.536-21.334-21.334v-469.334c0-11.798 9.536-21.333 21.334-21.333h128c11.798 0 21.334 9.536 21.334 21.334v469.334c0 11.798-9.536 21.334-21.334 21.334z" />
<glyph unicode="&#xe652;" d="M469.334 53.334h-426.666c-23.552 0-42.666 19.115-42.666 42.666v341.312c0 23.574 19.114 42.688 42.666 42.688h426.666c23.552 0 42.666-19.114 42.666-42.688v-341.312c0-23.552-19.115-42.666-42.666-42.666zM448 416.022h-384v-277.334c23.659 23.659 61.632 61.632 85.334 85.334 20.438 20.438 42.005 0.661 42.005 0.661l43.328-43.328c0 0 69.398 69.397 106.006 106.005 21.995 21.995 42.986 1.002 42.986 1.002l64.341-64.341v192zM149.333 288.022c-23.552 0-42.666 19.114-42.666 42.666s19.115 42.666 42.666 42.666 42.667-19.114 42.667-42.666-19.114-42.666-42.666-42.666z" />
<glyph unicode="&#xe653;" d="M469.824 437.803v0c-27.221 27.221-63.382 42.197-101.824 42.197-38.464 0-74.603-14.976-101.803-42.197 0 0-90.838-90.794-96.043-95.978-27.114-27.136-42.090-63.36-42.154-102.058 0.064-38.421 15.040-74.496 42.176-101.611l11.733-11.733c3.114-3.115 7.21-4.693 11.306-4.693 4.075 0 8.192 1.558 11.306 4.693l22.635 22.635c6.25 6.25 6.25 16.384 0 22.635l-11.733 11.712c-30.678 30.699-31.104 81.046-0.917 112.256 0.939 0.96 96.939 96.918 96.939 96.918 15.104 15.104 35.2 23.424 56.576 23.424 21.334 0 41.408-8.32 56.512-23.403 0.022 0 0.022-0.042 0.022-0.042 31.253-31.296 31.253-81.878 0.022-113.131l-4.95-4.928c7.765-20.8 12.352-43.072 12.373-66.496 0-4.245-0.576-8.341-0.853-12.502l38.678 38.678c56.256 56.256 56.214 147.456 0 203.626zM330.112 321.558c-3.115 3.115-7.211 4.693-11.306 4.693-4.075 0-8.192-1.558-11.307-4.693l-22.635-22.635c-6.25-6.25-6.25-16.384 0-22.635l11.733-11.712c30.678-30.698 31.104-81.046 0.918-112.256-0.938-0.96-96.939-96.918-96.939-96.918-15.125-15.082-35.221-23.402-56.597-23.402-21.334 0-41.408 8.32-56.512 23.402l-0.022 0.043c-31.254 31.296-31.254 81.877-0.022 113.13l4.95 4.928c-7.766 20.779-12.352 43.072-12.374 66.496 0 4.245 0.576 8.341 0.832 12.501l-38.656-38.677c-56.234-56.256-56.192-147.435 0-203.627h0.022c27.2-27.221 63.36-42.197 101.803-42.197 38.464 0 74.602 14.976 101.802 42.197 0 0 90.858 90.794 96.043 95.978 27.115 27.136 42.091 63.382 42.154 102.058-0.064 38.422-15.040 74.496-42.176 101.611l-11.712 11.712z" />
<glyph unicode="&#xe654;" d="M469.824 437.846c-56.214 56.214-147.392 56.214-203.648-0.043l-224-224c-56.256-56.256-56.256-147.435-0.022-203.648 56.214-56.235 147.392-56.256 203.648 0l47.446 46.080c-25.493 0.555-48.79 8.875-68.48 22.358l-24.214-23.19c-31.254-31.253-81.92-31.253-113.174 0-31.21 31.211-31.21 81.899 0.043 113.152l224 224c31.253 31.254 81.899 31.254 113.13 0 31.253-31.254 31.274-81.877 0.043-113.13l-111.616-112.406c-9.387-9.365-24.555-9.365-33.942 0s-9.365 24.555 0 33.942l84.267 85.077c6.25 6.25 6.272 16.384 0 22.635l-22.613 22.635c-6.25 6.25-16.384 6.25-22.635 0l-84.267-85.077c-34.389-34.368-34.389-90.112 0-124.438 34.368-34.368 90.091-34.368 124.416 0l111.616 112.406c56.235 56.235 56.235 147.435 0 203.648z" />
<glyph unicode="&#xe655;" d="M469.334 53.334h-426.666c-23.552 0-42.666 19.115-42.666 42.666v341.312c0 23.574 19.114 42.688 42.666 42.688h426.666c23.552 0 42.666-19.114 42.666-42.688v-341.312c0-23.552-19.115-42.666-42.666-42.666zM448 416.022h-384v-64h384v64zM448 224.022v64h-384v-170.666h384v106.666zM128 245.355h149.333c11.798 0 21.334-9.536 21.334-21.333s-9.536-21.334-21.334-21.334h-149.333c-11.797 0-21.334 9.536-21.334 21.334s9.536 21.334 21.334 21.334zM362.666 245.355h21.334c11.798 0 21.334-9.536 21.334-21.333s-9.536-21.334-21.334-21.334h-21.334c-11.798 0-21.334 9.536-21.334 21.334s9.536 21.334 21.334 21.334z" />
<glyph unicode="&#xe656;" d="M512 224l-190.422-64-5.163-192-122.838 152.427-193.578-54.678 114.475 158.25-114.475 158.208 193.578-54.656 122.838 152.448 5.163-192 190.422-64z" />
<glyph unicode="&#xe657;" d="M0 351.978c0 23.552 19.114 42.666 42.666 42.666h42.666v42.688c0 11.776 9.558 42.646 21.334 42.646h42.666c11.797 0 21.333-30.87 21.333-42.646v-42.688h170.666v42.688c0 11.755 9.536 42.646 21.334 42.646h42.666c11.798 0 21.334-30.89 21.334-42.646v-42.688h42.666c23.552 0 42.666-19.115 42.666-42.666v-42.666h-512v42.666zM512 266.645v-277.333c0 0-11.115-21.333-42.666-21.333h-426.666c-33.557 0-42.666 21.334-42.666 21.334v277.334h512z" />
</font>
</defs>
</svg>
